PathFileType	4	(X/Y/Z)	Kaydara																																																																																																																									
DataRate	CameraRate	NumFrames	NumMarkers	Units	OrigDataRate	OrigDataStartFrame	OrigNumFrames																																																																																																																					
30	30	8	41	mm	30	18	142																																																																																																																					
Frame#	Time	PAIB_LFHD			PAIB_RFHD			PAIB_LBHD			PAIB_RBHD			PAIB_LFTShould			PAIB_RFTShould			PAIB_LRRShould			PAIB_RRRShould			PAIB_T10			PAIB_STRN			PAIB_TRUN			PAIB_LSHO			PAIB_LUPA			PAIB_LELB			PAIB_LFRM			PAIB_LWRA			PAIB_LWRB			PAIB_LFIN			PAIB_RSHO			PAIB_RUPA			PAIB_RELB			PAIB_RFRM			PAIB_RWRA			PAIB_RWRB			PAIB_RFIN			PAIB_LFWT			PAIB_RFWT			PAIB_LBWT			PAIB_RBWT			PAIB_LTHI			PAIB_LKNE			PAIB_LSHN			PAIB_LANK			PAIB_LHEE			PAIB_LTOE			PAIB_RTHI			PAIB_RKNE			PAIB_RSHN			PAIB_RANK			PAIB_RHEE			PAIB_RTOE		
		X1	Y1	Z1	X2	Y2	Z2	X3	Y3	Z3	X4	Y4	Z4	X5	Y5	Z5	X6	Y6	Z6	X7	Y7	Z7	X8	Y8	Z8	X9	Y9	Z9	X10	Y10	Z10	X11	Y11	Z11	X12	Y12	Z12	X13	Y13	Z13	X14	Y14	Z14	X15	Y15	Z15	X16	Y16	Z16	X17	Y17	Z17	X18	Y18	Z18	X19	Y19	Z19	X20	Y20	Z20	X21	Y21	Z21	X22	Y22	Z22	X23	Y23	Z23	X24	Y24	Z24	X25	Y25	Z25	X26	Y26	Z26	X27	Y27	Z27	X28	Y28	Z28	X29	Y29	Z29	X30	Y30	Z30	X31	Y31	Z31	X32	Y32	Z32	X33	Y33	Z33	X34	Y34	Z34	X35	Y35	Z35	X36	Y36	Z36	X37	Y37	Z37	X38	Y38	Z38	X39	Y39	Z39	X40	Y40	Z40	X41	Y41	Z41
																																																																																																																												
18	0.577	247.17169	1698.17627	-1979.2749	62.02916	1698.90366	-1990.71457	262.33738	1661.6861	-2104.66309	59.40015	1673.7767	-2103.89008	224.37649	1435.51041	-1996.43097	98.71663	1429.71207	-1995.13992	229.9028	1504.4545	-2137.13104	77.48527	1498.80981	-2127.30362	153.9695	1344.5314	-2215.80704	171.03281	1367.65793	-1958.29315	171.99986	1265.9697	-1936.67984	356.18622	1450.30594	-2080.83572	411.81835	1223.6602	-2120.4451	418.97362	1147.5264	-2168.3255	443.19675	1030.60638	-2132.12311	397.13093	915.80353	-2043.93936	427.36691	900.19623	-2114.87152	446.30268	861.94153	-2054.08829	-32.12716	1431.21033	-2054.00024	-96.50183	1265.52132	-2121.84509	-120.31996	1152.97722	-2142.3851	-142.38037	1017.63275	-2115.58777	-91.47232	913.0368	-2017.26501	-154.17913	898.24196	-2069.90631	-151.47356	863.30025	-2004.18274	277.72663	980.31906	-1991.5184	40.59299	978.39668	-1982.16385	202.49735	1010.36743	-2208.84338	62.84857	1024.86763	-2195.26093	257.67019	751.44264	-2198.94318	311.17744	503.88302	-2112.99652	292.17003	316.18967	-2101.26221	291.56456	130.36202	-2186.49231	230.59944	118.16314	-2225.62637	292.75539	74.78244	-2003.54599	10.33433	724.17702	-2178.52661	2.57237	482.55333	-2086.99112	62.40718	296.05545	-2095.12314	27.26856	111.65962	-2205.05447	86.6605	114.71422	-2245.09598	43.80449	76.94394	-2010.87433
19	0.61	246.93638	1698.46939	-1979.53751	61.63642	1699.04572	-1990.34058	262.08273	1661.63956	-2104.8262	59.11863	1673.65814	-2104.00909	224.19552	1435.43411	-1995.97931	98.61166	1429.70184	-1994.76898	229.9848	1504.38812	-2136.61575	77.42519	1498.83026	-2126.88629	153.94918	1344.44809	-2215.32516	170.79403	1367.54623	-1957.86835	171.52569	1265.86914	-1936.26297	356.13487	1450.21637	-2080.1944	411.62052	1223.25279	-2118.17108	419.32461	1147.38083	-2166.33209	443.45886	1030.59311	-2129.82056	396.92554	915.75012	-2041.79016	427.8437	900.27481	-2112.57889	446.48148	862.06688	-2051.69403	-32.15238	1431.16302	-2053.47122	-96.63199	1265.45731	-2121.0112	-120.48398	1152.8434	-2141.34964	-142.4501	1017.6033	-2114.18533	-91.27837	913.29895	-2015.59357	-154.06219	898.30399	-2068.1485	-151.28329	863.53867	-2002.34161	277.61768	980.31891	-1990.60974	40.43967	978.35991	-1981.75629	202.57982	1010.19737	-2208.13034	62.99565	1024.77127	-2194.74335	257.70014	751.30997	-2197.85568	311.0619	503.76926	-2111.87469	292.12107	316.05844	-2100.61325	291.60284	130.4731	-2186.19781	230.5901	118.30228	-2225.53467	292.8303	74.83045	-2003.62213	10.52074	724.21738	-2178.09662	2.43396	482.57179	-2086.7868	62.31275	296.12875	-2094.97757	27.24597	111.70566	-2205.04608	86.66074	114.75834	-2245.0705	43.84258	76.90194	-2010.82611
20	0.643	246.56321	1698.71857	-1979.16718	61.37145	1698.98224	-1990.54779	261.91425	1661.83853	-2104.45053	58.93632	1673.47626	-2103.86627	224.56867	1435.66284	-1995.11322	98.34125	1429.79813	-1994.35593	229.94572	1504.31244	-2135.95505	77.35481	1498.92792	-2126.47705	153.88838	1344.44229	-2214.82956	170.41151	1367.5415	-1957.41989	170.9766	1265.83076	-1935.78537	355.41359	1450.1387	-2078.12347	411.71207	1223.30803	-2116.67297	419.62307	1147.36862	-2164.6727	443.63579	1030.6179	-2127.81158	396.65489	915.84755	-2039.86633	427.92633	900.28198	-2110.41641	446.20319	862.15012	-2049.31046	-32.30505	1431.42807	-2052.995	-96.85093	1265.59708	-2120.24948	-120.79956	1153.02551	-2140.33203	-142.60644	1017.79083	-2112.76779	-90.94554	913.70781	-2014.30359	-154.0587	898.6425	-2066.44623	-150.80421	863.93753	-2000.5722	277.41219	980.23041	-1989.89944	40.22614	978.3606	-1981.17584	202.5485	1010.18661	-2207.44781	62.93671	1024.77676	-2194.1658	257.72787	751.17279	-2197.12952	310.90387	503.6845	-2110.90027	291.9978	315.97961	-2100.00992	291.51348	130.35936	-2186.22482	230.55414	118.38868	-2225.34271	292.83939	74.84151	-2003.63953	10.5545	724.2067	-2177.77145	2.44857	482.52563	-2086.62094	62.34008	296.01368	-2094.88785	27.29793	111.77624	-2205.12192	86.74154	114.80887	-2245.04425	43.96206	76.87472	-2010.71472
21	0.677	246.01458	1698.75229	-1978.25821	60.95253	1698.92929	-1989.96155	261.81112	1661.78452	-2103.54248	58.82036	1673.27621	-2103.56415	224.45635	1435.74173	-1994.89059	98.12904	1429.87823	-1994.04572	229.8535	1504.12781	-2135.42206	77.22044	1499.01382	-2126.082	153.75272	1344.42429	-2214.37866	169.97393	1367.53448	-1956.94427	170.42255	1265.84236	-1935.21957	355.13294	1450.50781	-2079.63135	411.68003	1223.21335	-2115.32288	419.76616	1147.27654	-2163.16238	443.65578	1030.57648	-2126.12	396.38134	915.97786	-2038.19534	427.82692	900.17242	-2108.58444	445.93395	862.2641	-2047.42844	-32.52544	1431.68167	-2052.55676	-97.11135	1265.76103	-2119.58252	-121.05897	1153.1443	-2139.52332	-142.81889	1017.98958	-2111.66992	-90.92419	914.1378	-2013.08182	-154.10794	898.91701	-2065.10727	-150.6815	864.24789	-1999.23355	277.25542	980.24612	-1988.90091	39.92478	978.38326	-1980.74646	202.58219	1010.30327	-2206.64673	63.00689	1024.83711	-2193.65067	257.78179	751.19041	-2196.60614	310.6605	503.63472	-2110.08606	291.79722	315.9627	-2099.43298	291.36648	130.44198	-2186.01807	230.36102	118.50454	-2225.20416	292.7784	74.7838	-2003.51257	10.52767	724.23668	-2177.45102	2.38145	482.46277	-2086.32568	62.35423	295.92583	-2094.6138	27.39228	111.85413	-2205.04578	86.95448	114.90647	-2244.96841	44.08843	76.78694	-2010.65796
22	0.71	245.5368	1698.50739	-1977.04041	60.60124	1698.76984	-1989.42154	261.66891	1661.71677	-2102.70798	58.77042	1673.24677	-2102.92206	220.89779	1434.33701	-1991.68671	97.63891	1429.77402	-1993.52661	229.70892	1503.96973	-2134.58939	77.07852	1499.05945	-2125.60226	153.61967	1344.41254	-2213.8533	169.52211	1367.42767	-1956.2851	169.98137	1265.6572	-1934.64081	355.27073	1449.88373	-2076.7485	411.44432	1222.93861	-2113.96759	419.67491	1146.99326	-2161.83914	443.3778	1030.26085	-2124.57672	396.02398	915.94719	-2036.56906	427.53471	899.99992	-2106.96533	445.54771	862.14561	-2045.84717	-32.77802	1431.64993	-2052.07367	-97.35021	1265.75172	-2118.92746	-121.32502	1153.12302	-2138.82736	-143.05156	1018.01041	-2110.81787	-91.21849	914.32083	-2011.96075	-154.31972	898.98651	-2064.08127	-150.91718	864.41879	-1998.18024	276.72235	980.08957	-1988.10196	39.52885	978.40462	-1980.62851	202.715	1010.38818	-2206.1145	63.10655	1024.83719	-2193.35052	257.61501	751.28357	-2195.96039	310.39454	503.57841	-2109.30939	291.53006	315.93267	-2099.00848	291.19974	130.4904	-2185.87921	230.16983	118.60309	-2225.08621	292.75646	74.79392	-2003.49564	10.61149	723.97797	-2177.04742	2.28112	482.28004	-2085.2121	62.31874	295.72897	-2093.79196	27.41267	111.88225	-2204.85626	87.03082	115.06723	-2244.7493	44.18684	76.70949	-2010.47638
23	0.743	245.15503	1698.06549	-1975.59784	60.2788	1698.47046	-1988.6084	261.45731	1661.42471	-2100.83572	58.60948	1673.3255	-2101.99951	220.24889	1434.08569	-1990.59952	97.08033	1429.77539	-1992.78336	229.53121	1504.00391	-2133.6525	76.7849	1498.97842	-2124.96704	153.49494	1344.45221	-2213.29041	169.00383	1367.27371	-1955.49332	169.38622	1265.40382	-1934.14902	354.79485	1449.67102	-2075.0882	411.17821	1222.71843	-2112.77496	419.47632	1146.74896	-2160.55115	443.01109	1030.01526	-2123.26309	395.25623	915.64758	-2035.46417	427.00974	899.83849	-2105.72876	444.9099	862.00859	-2044.44824	-33.19946	1431.58569	-2051.62109	-97.66645	1265.5896	-2118.49609	-121.59816	1152.98531	-2138.37021	-143.28938	1017.87003	-2110.1651	-91.53062	914.43428	-2011.28616	-154.5884	898.95386	-2063.30795	-151.31616	864.53613	-1997.29752	276.43742	980.15259	-1987.37991	38.96465	978.2489	-1980.50156	202.72877	1010.20691	-2205.5365	63.09806	1024.49562	-2193.22037	257.71591	751.33324	-2195.58441	310.28214	503.51341	-2108.36411	291.40173	315.81661	-2098.41965	291.14084	130.60486	-2185.7045	230.18982	118.71751	-2225.01984	292.68021	74.79793	-2003.48892	10.70977	723.44101	-2176.36215	2.29817	481.92684	-2083.9888	62.45137	295.35767	-2093.02307	27.55552	111.97685	-2204.57794	87.18828	115.21845	-2244.5108	44.31023	76.64955	-2010.25803
24	0.777	244.76465	1697.56973	-1974.14825	59.93109	1698.05923	-1987.22061	261.13499	1661.49399	-2099.61853	58.25086	1673.37875	-2100.66345	219.80196	1434.20532	-1989.50134	96.6047	1429.86801	-1992.07611	229.18188	1504.05487	-2132.64099	76.40027	1499.00543	-2124.29535	153.29166	1344.66965	-2212.97348	168.4256	1367.08817	-1954.61533	168.75004	1265.21156	-1933.74603	354.34208	1449.70551	-2073.67645	410.96161	1222.79861	-2111.44806	419.27155	1146.74797	-2159.16641	442.58133	1029.99908	-2121.94519	394.30855	915.60844	-2034.43954	425.73078	899.83498	-2104.263	443.91861	861.82152	-2043.20221	-33.66277	1431.56876	-2051.02676	-98.03519	1265.55557	-2118.04947	-121.93672	1152.95021	-2137.95074	-143.65115	1017.87109	-2109.729	-91.95138	914.60426	-2010.69733	-154.94217	898.94089	-2062.79587	-151.71232	864.55406	-1996.77689	276.03176	980.24406	-1987.0668	38.62228	977.99477	-1980.3093	202.54	1010.00168	-2205.2562	62.91142	1024.0834	-2192.98065	258.12126	751.18462	-2195.13916	310.09363	503.44826	-2107.22183	291.01929	315.68296	-2097.56989	291.05642	130.70596	-2185.49286	230.24668	118.84746	-2224.91882	292.64046	74.78608	-2003.46069	10.8979	723.10013	-2175.66437	2.39778	481.70383	-2083.20511	62.62464	295.13346	-2092.4762	27.71582	112.07026	-2204.47525	87.35477	115.2906	-2244.39728	44.43665	76.6124	-2010.14267
25	0.81	244.36861	1697.22565	-1973.00842	59.53171	1697.62222	-1985.70053	260.64575	1661.34247	-2098.50342	57.72252	1673.14789	-2099.33594	219.32516	1434.28131	-1988.35526	95.9742	1430.01846	-1991.10001	228.90745	1504.23782	-2131.48636	76.04632	1499.19342	-2123.36868	152.98975	1345.112	-2212.6767	167.94367	1367.05063	-1953.77716	168.36182	1265.08583	-1933.37067	353.93131	1449.90921	-2072.29004	410.73769	1223.01895	-2110.04608	419.28871	1147.00027	-2157.79831	442.26582	1030.14244	-2120.50751	393.34717	915.72586	-2033.49426	425.145	899.99413	-2103.11646	442.72987	861.75323	-2041.9545	-34.01045	1431.62628	-2050.30685	-98.41475	1265.73303	-2117.58865	-122.42408	1153.19603	-2137.54608	-144.06589	1018.06976	-2109.47754	-92.40019	914.73503	-2010.44037	-155.35543	899.10416	-2062.59766	-152.05458	864.61563	-1996.62521	275.95963	980.28954	-1986.71875	38.58113	977.94907	-1980.02655	202.30753	1010.09018	-2205.08636	62.69614	1024.07303	-2192.72858	258.2077	751.0112	-2194.70093	309.96161	503.47851	-2106.19186	290.88833	315.59565	-2096.9458	291.03155	130.86258	-2185.09109	230.14091	118.98248	-2224.76883	292.60733	74.79094	-2003.41995	10.89788	722.96776	-2175.39337	2.44861	481.55121	-2082.67776	62.80852	294.89893	-2092.13577	27.6928	112.02907	-2204.29733	87.41005	115.33603	-2244.33792	44.54901	76.58965	-2010.1355
